<svg width="24" height="24" viewBox="0 0 24 24" fill="none" xmlns="http://www.w3.org/2000/svg">
<g clip-path="url(#clip0_2118_7173)">
<rect x="2" y="2" width="60.875" height="60.875" fill="#D9D9D9"/>
<g clip-path="url(#clip1_2118_7173)">
<path d="M11.9372 108.937C-0.800613 108.937 -13.4142 106.429 -25.1828 101.554C-36.9513 96.6794 -47.6446 89.5345 -56.6519 80.5267C-65.6591 71.5197 -72.8041 60.8262 -77.6788 49.0576C-82.5535 37.289 -85.0625 24.676 -85.0625 11.9374C-85.0625 -0.800453 -82.5535 -13.4142 -77.6788 -25.1828C-72.8041 -36.9514 -65.6591 -47.6445 -56.6518 -56.6519C-47.6446 -65.6591 -36.9513 -72.8041 -25.1828 -77.6788C-13.4142 -82.5535 -0.800613 -85.0625 11.9372 -85.0625V11.9374V108.937Z" fill="white"/>
<path d="M11.9375 108.937C24.6761 108.937 37.2898 106.429 49.0576 101.554C60.8262 96.6794 71.5197 89.5345 80.5268 80.5267C89.5346 71.5197 96.6795 60.8262 101.554 49.0576C106.429 37.289 108.938 24.676 108.938 11.9374C108.938 -0.800453 106.429 -13.4142 101.554 -25.1828C96.6795 -36.9514 89.5346 -47.6445 80.5268 -56.6519C71.5197 -65.6591 60.8262 -72.8041 49.0576 -77.6788C37.289 -82.5535 24.6761 -85.0625 11.9375 -85.0625V11.9374V108.937Z" fill="black"/>
</g>
<rect x="-82.5625" y="-82.5625" width="189" height="189" rx="94.5" stroke="black" stroke-width="5"/>
</g>
<rect x="2.6875" y="2.6875" width="18.625" height="18.625" rx="7.0625" stroke="#9A9A9A" stroke-width="1.375"/>
<defs>
<clipPath id="clip0_2118_7173">
<rect x="2" y="2" width="20" height="20" rx="7.75" fill="white"/>
</clipPath>
<clipPath id="clip1_2118_7173">
<rect x="-85.0625" y="-85.0625" width="194" height="194" rx="97" fill="white"/>
</clipPath>
</defs>
</svg>
