<svg width="24" height="24" viewBox="0 0 24 24" fill="none" xmlns="http://www.w3.org/2000/svg">
<mask id="mask0_2128_15374" style="mask-type:alpha" maskUnits="userSpaceOnUse" x="0" y="0" width="24" height="24">
<rect width="24" height="24" fill="#D9D9D9"/>
</mask>
<g mask="url(#mask0_2128_15374)">
<path d="M7 9V7H11.5V9H7ZM7 12V10H11.5V12H7Z" fill="#1C1B1F"/>
<path fill-rule="evenodd" clip-rule="evenodd" d="M15 2H4V21H14V19H6V4H15V2Z" fill="#1C1B1F"/>
<path fill-rule="evenodd" clip-rule="evenodd" d="M18 19C18 19.8333 17.7083 20.5417 17.125 21.125C16.5417 21.7083 15.8333 22 15 22H12V6H15C15.2833 6 15.5208 5.90417 15.7125 5.7125C15.9042 5.52083 16 5.28333 16 5C16 4.71667 15.9042 4.47917 15.7125 4.2875C15.5208 4.09583 15.2833 4 15 4V2C15.8333 2 16.5417 2.29167 17.125 2.875C17.7083 3.45833 18 4.16667 18 5V19ZM16 8V19C16 19.2833 15.9042 19.5208 15.7125 19.7125C15.5208 19.9042 15.2833 20 15 20H14V8H16Z" fill="#1C1B1F"/>
</g>
</svg>
