<svg width="24" height="24" viewBox="0 0 24 24" fill="none" xmlns="http://www.w3.org/2000/svg">
<mask id="mask0_2128_17751" style="mask-type:alpha" maskUnits="userSpaceOnUse" x="0" y="0" width="24" height="24">
<rect width="24" height="24" fill="#D9D9D9"/>
</mask>
<g mask="url(#mask0_2128_17751)">
<path d="M22 17.5C22 18.3333 21.7083 19.0417 21.125 19.625C20.5417 20.2083 19.8333 20.5 19 20.5H16V17.5H2L2 2.5H19C19.8333 2.5 20.5417 2.79167 21.125 3.375C21.7083 3.95833 22 4.66667 22 5.5V17.5ZM20 5.5C20 5.21667 19.9042 4.97917 19.7125 4.7875C19.5208 4.59583 19.2833 4.5 19 4.5L4 4.5L4 15.5H16V6.5L19 6.5C19.2833 6.5 19.5208 6.40417 19.7125 6.2125C19.9042 6.02083 20 5.78333 20 5.5ZM20 17.5V8.5H18V18.5H19C19.2833 18.5 19.5208 18.4042 19.7125 18.2125C19.9042 18.0208 20 17.7833 20 17.5ZM20 17.5V18.5V8.5V17.5Z" fill="#1C1B1F"/>
<path d="M5.5 7.5V9.5H14.5V7.5H5.5Z" fill="#1C1B1F"/>
<path d="M5.5 10.5V12.5H14.5V10.5H5.5Z" fill="#1C1B1F"/>
</g>
</svg>
